<svg width="44" height="42" viewBox="0 0 44 42" fill="none" xmlns="http://www.w3.org/2000/svg">
<path d="M22 1.3125H31.625C31.9897 1.3125 32.3394 1.45078 32.5973 1.69692C32.8551 1.94306 33 2.2769 33 2.625V6.5625C33 6.9106 32.8551 7.24444 32.5973 7.49058C32.3394 7.73672 31.9897 7.875 31.625 7.875H12.375C12.0103 7.875 11.6606 7.73672 11.4027 7.49058C11.1449 7.24444 11 6.9106 11 6.5625V2.625C11 2.2769 11.1449 1.94306 11.4027 1.69692C11.6606 1.45078 12.0103 1.3125 12.375 1.3125H22Z" fill="#BDBDBE"/>
<path d="M31.6251 1.3125H12.4569C12.414 1.43691 12.3908 1.56676 12.3882 1.69772V4.97897C12.3882 5.50111 12.6055 6.00187 12.9923 6.37109C13.3791 6.7403 13.9037 6.94772 14.4507 6.94772H32.9314C32.9746 6.82338 32.9978 6.69349 33.0001 6.5625V2.625C33.0001 2.2769 32.8553 1.94306 32.5974 1.69692C32.3395 1.45078 31.9898 1.3125 31.6251 1.3125Z" fill="#D7D7D8"/>
<path d="M22.6875 3.28125H21.3125V5.90625H22.6875V3.28125Z" fill="#9C9D9E"/>
<path d="M19.9375 3.28125H18.5625V5.90625H19.9375V3.28125Z" fill="#9C9D9E"/>
<path d="M17.1875 3.28125H15.8125V5.90625H17.1875V3.28125Z" fill="#9C9D9E"/>
<path d="M14.4375 3.28125H13.0625V5.90625H14.4375V3.28125Z" fill="#9C9D9E"/>
<path d="M25.4375 3.28125H24.0625V5.90625H25.4375V3.28125Z" fill="#9C9D9E"/>
<path d="M28.1875 3.28125H26.8125V5.90625H28.1875V3.28125Z" fill="#9C9D9E"/>
<path d="M30.9375 3.28125H29.5625V5.90625H30.9375V3.28125Z" fill="#9C9D9E"/>
<path d="M30.25 7.875V10.5L32.6562 12.3375C32.978 12.5834 33.2377 12.8952 33.4162 13.2498C33.5947 13.6045 33.6874 13.9929 33.6875 14.3863V38.0625C33.6875 38.7587 33.3978 39.4264 32.882 39.9187C32.3663 40.4109 31.6668 40.6875 30.9375 40.6875H13.0625C12.3332 40.6875 11.6337 40.4109 11.118 39.9187C10.6022 39.4264 10.3125 38.7587 10.3125 38.0625V14.3863C10.3126 13.9929 10.4053 13.6045 10.5838 13.2498C10.7623 12.8952 11.022 12.5834 11.3438 12.3375L13.75 10.5V7.875H30.25Z" fill="#7F5433"/>
<path d="M33.6875 38.0625V14.3863C33.6874 13.9929 33.5947 13.6045 33.4162 13.2498C33.2377 12.8952 32.978 12.5834 32.6562 12.3375L30.25 10.5V9.1875C30.25 9.01345 30.1776 8.84653 30.0486 8.72346C29.9197 8.60039 29.7448 8.53125 29.5625 8.53125H17.875C17.5103 8.53125 17.1606 8.66953 16.9027 8.91567C16.6449 9.16181 16.5 9.49565 16.5 9.84375V10.5L14.0938 12.3375C13.772 12.5834 13.5123 12.8952 13.3338 13.2498C13.1553 13.6045 13.0626 13.9929 13.0625 14.3863V38.0625C13.0625 38.7587 13.3522 39.4264 13.868 39.9187C14.3837 40.4109 15.0832 40.6875 15.8125 40.6875H30.9375C31.6668 40.6875 32.3663 40.4109 32.882 39.9187C33.3978 39.4264 33.6875 38.7587 33.6875 38.0625Z" fill="#A66A43"/>
<path d="M10.3125 34.7812H22H33.6875V17.7188H22H10.3125V34.7812Z" fill="#FFC239"/>
<path d="M13.0625 34.7812H23.375H33.6875V17.7188H23.375H13.0625V34.7812Z" fill="#FFD55D"/>
<path d="M22 33.0803C22 33.0803 16.5 35.049 13.0625 27.8303C13.0625 27.8303 21.3125 27.174 22 33.0803Z" fill="#FFC239"/>
<path d="M22.0001 33.0801C22.0001 33.0801 19.9376 25.8613 30.9376 21.2676C30.9376 21.2676 31.6251 33.0801 22.0001 33.0801Z" fill="#FFC239"/>
<path d="M22 32.1565C22 32.1565 16.5 34.1252 13.0625 26.9065C13.0625 26.9065 21.3125 26.2502 22 32.1565Z" fill="#3ECD4E"/>
<path d="M22.0001 32.1562C22.0001 32.1562 19.9376 24.9375 30.9376 20.3438C30.9376 20.3438 31.6251 32.1562 22.0001 32.1562Z" fill="#39AA5B"/>
<path d="M30.2501 20.6475C21.5876 24.5476 21.6818 30.1007 21.9128 31.7046C29.5028 31.2866 30.2123 23.155 30.2501 20.6475Z" fill="#3ECD4E"/>
<path d="M30.25 10.5V10.4429H13.75V10.5L11.3438 12.3375C11.022 12.5834 10.7623 12.8952 10.5838 13.2498C10.4053 13.6044 10.3126 13.9928 10.3125 14.3863H33.6875C33.6874 13.9928 33.5947 13.6044 33.4162 13.2498C33.2377 12.8952 32.978 12.5834 32.6562 12.3375L30.25 10.5Z" fill="#A66A43"/>
<path d="M30.25 10.5V10.4429H16.5V10.5L14.0938 12.3375C13.772 12.5834 13.5123 12.8952 13.3338 13.2498C13.1553 13.6044 13.0626 13.9928 13.0625 14.3863H33.6875C33.6874 13.9928 33.5947 13.6044 33.4162 13.2498C33.2377 12.8952 32.978 12.5834 32.6562 12.3375L30.25 10.5Z" fill="#CB8152"/>
<path d="M13.8877 26.8853C16.6301 32.0467 20.465 31.9312 21.9211 31.6673C21.0618 27.3656 15.9186 26.8997 13.8877 26.8853Z" fill="#7FD65E"/>
<path d="M21.8672 31.2827C21.8852 31.5769 21.9296 31.8692 21.9999 32.1562C22.3223 32.1562 22.631 32.1411 22.9308 32.1155L25.9661 28.6374L24.9087 27.7974L21.8672 31.2827Z" fill="#7FD65E"/>
</svg>
